<?xml version="1.0" encoding="utf-8" standalone="no"?>
<!DOCTYPE svg PUBLIC "-//W3C//DTD SVG 1.1//EN"
  "http://www.w3.org/Graphics/SVG/1.1/DTD/svg11.dtd">
<svg xmlns:xlink="http://www.w3.org/1999/xlink" width="460.8pt" height="345.6pt" viewBox="0 0 460.8 345.6" xmlns="http://www.w3.org/2000/svg" version="1.1">
 <metadata>
  <rdf:RDF xmlns:dc="http://purl.org/dc/elements/1.1/" xmlns:cc="http://creativecommons.org/ns#" xmlns:rdf="http://www.w3.org/1999/02/22-rdf-syntax-ns#">
   <cc:Work>
    <dc:type rdf:resource="http://purl.org/dc/dcmitype/StillImage"/>
    <dc:date>2026-04-05T14:52:59.033314</dc:date>
    <dc:format>image/svg+xml</dc:format>
    <dc:creator>
     <cc:Agent>
      <dc:title>Matplotlib v3.8.3, https://matplotlib.org/</dc:title>
     </cc:Agent>
    </dc:creator>
   </cc:Work>
  </rdf:RDF>
 </metadata>
 <defs>
  <style type="text/css">*{stroke-linejoin: round; stroke-linecap: butt}</style>
 </defs>
 <g id="figure_1">
  <g id="patch_1">
   <path d="M 0 345.6 
L 460.8 345.6 
L 460.8 0 
L 0 0 
z
" style="fill: #ffffff"/>
  </g>
  <g id="axes_1">
   <g id="patch_2">
    <path d="M 57.6 307.584 
L 414.72 307.584 
L 414.72 41.472 
L 57.6 41.472 
z
" style="fill: #ffffff"/>
   </g>
   <g id="matplotlib.axis_1">
    <g id="xtick_1">
     <g id="line2d_1">
      <defs>
       <path id="m0aa1c64c8d" d="M 0 0 
L 0 3.5 
" style="stroke: #000000; stroke-width: 0.8"/>
      </defs>
      <g>
       <use xlink:href="#m0aa1c64c8d" x="73.832727" y="307.584" style="stroke: #000000; stroke-width: 0.8"/>
      </g>
     </g>
     <g id="text_1">
      <!-- 0 -->
      <g transform="translate(70.651477 322.182437) scale(0.1 -0.1)">
       <defs>
        <path id="DejaVuSans-30" d="M 2034 4250 
Q 1547 4250 1301 3770 
Q 1056 3291 1056 2328 
Q 1056 1369 1301 889 
Q 1547 409 2034 409 
Q 2525 409 2770 889 
Q 3016 1369 3016 2328 
Q 3016 3291 2770 3770 
Q 2525 4250 2034 4250 
z
M 2034 4750 
Q 2819 4750 3233 4129 
Q 3647 3509 3647 2328 
Q 3647 1150 3233 529 
Q 2819 -91 2034 -91 
Q 1250 -91 836 529 
Q 422 1150 422 2328 
Q 422 3509 836 4129 
Q 1250 4750 2034 4750 
z
" transform="scale(0.015625)"/>
       </defs>
       <use xlink:href="#DejaVuSans-30"/>
      </g>
     </g>
    </g>
    <g id="xtick_2">
     <g id="line2d_2">
      <g>
       <use xlink:href="#m0aa1c64c8d" x="138.893758" y="307.584" style="stroke: #000000; stroke-width: 0.8"/>
      </g>
     </g>
     <g id="text_2">
      <!-- 10000 -->
      <g transform="translate(122.987508 322.182437) scale(0.1 -0.1)">
       <defs>
        <path id="DejaVuSans-31" d="M 794 531 
L 1825 531 
L 1825 4091 
L 703 3866 
L 703 4441 
L 1819 4666 
L 2450 4666 
L 2450 531 
L 3481 531 
L 3481 0 
L 794 0 
L 794 531 
z
" transform="scale(0.015625)"/>
       </defs>
       <use xlink:href="#DejaVuSans-31"/>
       <use xlink:href="#DejaVuSans-30" x="63.623047"/>
       <use xlink:href="#DejaVuSans-30" x="127.246094"/>
       <use xlink:href="#DejaVuSans-30" x="190.869141"/>
       <use xlink:href="#DejaVuSans-30" x="254.492188"/>
      </g>
     </g>
    </g>
    <g id="xtick_3">
     <g id="line2d_3">
      <g>
       <use xlink:href="#m0aa1c64c8d" x="203.95479" y="307.584" style="stroke: #000000; stroke-width: 0.8"/>
      </g>
     </g>
     <g id="text_3">
      <!-- 20000 -->
      <g transform="translate(188.04854 322.182437) scale(0.1 -0.1)">
       <defs>
        <path id="DejaVuSans-32" d="M 1228 531 
L 3431 531 
L 3431 0 
L 469 0 
L 469 531 
Q 828 903 1448 1529 
Q 2069 2156 2228 2338 
Q 2531 2678 2651 2914 
Q 2772 3150 2772 3378 
Q 2772 3750 2511 3984 
Q 2250 4219 1831 4219 
Q 1534 4219 1204 4116 
Q 875 4013 500 3803 
L 500 4441 
Q 881 4594 1212 4672 
Q 1544 4750 1819 4750 
Q 2544 4750 2975 4387 
Q 3406 4025 3406 3419 
Q 3406 3131 3298 2873 
Q 3191 2616 2906 2266 
Q 2828 2175 2409 1742 
Q 1991 1309 1228 531 
z
" transform="scale(0.015625)"/>
       </defs>
       <use xlink:href="#DejaVuSans-32"/>
       <use xlink:href="#DejaVuSans-30" x="63.623047"/>
       <use xlink:href="#DejaVuSans-30" x="127.246094"/>
       <use xlink:href="#DejaVuSans-30" x="190.869141"/>
       <use xlink:href="#DejaVuSans-30" x="254.492188"/>
      </g>
     </g>
    </g>
    <g id="xtick_4">
     <g id="line2d_4">
      <g>
       <use xlink:href="#m0aa1c64c8d" x="269.015821" y="307.584" style="stroke: #000000; stroke-width: 0.8"/>
      </g>
     </g>
     <g id="text_4">
      <!-- 30000 -->
      <g transform="translate(253.109571 322.182437) scale(0.1 -0.1)">
       <defs>
        <path id="DejaVuSans-33" d="M 2597 2516 
Q 3050 2419 3304 2112 
Q 3559 1806 3559 1356 
Q 3559 666 3084 287 
Q 2609 -91 1734 -91 
Q 1441 -91 1130 -33 
Q 819 25 488 141 
L 488 750 
Q 750 597 1062 519 
Q 1375 441 1716 441 
Q 2309 441 2620 675 
Q 2931 909 2931 1356 
Q 2931 1769 2642 2001 
Q 2353 2234 1838 2234 
L 1294 2234 
L 1294 2753 
L 1863 2753 
Q 2328 2753 2575 2939 
Q 2822 3125 2822 3475 
Q 2822 3834 2567 4026 
Q 2313 4219 1838 4219 
Q 1578 4219 1281 4162 
Q 984 4106 628 3988 
L 628 4550 
Q 988 4650 1302 4700 
Q 1616 4750 1894 4750 
Q 2613 4750 3031 4423 
Q 3450 4097 3450 3541 
Q 3450 3153 3228 2886 
Q 3006 2619 2597 2516 
z
" transform="scale(0.015625)"/>
       </defs>
       <use xlink:href="#DejaVuSans-33"/>
       <use xlink:href="#DejaVuSans-30" x="63.623047"/>
       <use xlink:href="#DejaVuSans-30" x="127.246094"/>
       <use xlink:href="#DejaVuSans-30" x="190.869141"/>
       <use xlink:href="#DejaVuSans-30" x="254.492188"/>
      </g>
     </g>
    </g>
    <g id="xtick_5">
     <g id="line2d_5">
      <g>
       <use xlink:href="#m0aa1c64c8d" x="334.076852" y="307.584" style="stroke: #000000; stroke-width: 0.8"/>
      </g>
     </g>
     <g id="text_5">
      <!-- 40000 -->
      <g transform="translate(318.170602 322.182437) scale(0.1 -0.1)">
       <defs>
        <path id="DejaVuSans-34" d="M 2419 4116 
L 825 1625 
L 2419 1625 
L 2419 4116 
z
M 2253 4666 
L 3047 4666 
L 3047 1625 
L 3713 1625 
L 3713 1100 
L 3047 1100 
L 3047 0 
L 2419 0 
L 2419 1100 
L 313 1100 
L 313 1709 
L 2253 4666 
z
" transform="scale(0.015625)"/>
       </defs>
       <use xlink:href="#DejaVuSans-34"/>
       <use xlink:href="#DejaVuSans-30" x="63.623047"/>
       <use xlink:href="#DejaVuSans-30" x="127.246094"/>
       <use xlink:href="#DejaVuSans-30" x="190.869141"/>
       <use xlink:href="#DejaVuSans-30" x="254.492188"/>
      </g>
     </g>
    </g>
    <g id="xtick_6">
     <g id="line2d_6">
      <g>
       <use xlink:href="#m0aa1c64c8d" x="399.137883" y="307.584" style="stroke: #000000; stroke-width: 0.8"/>
      </g>
     </g>
     <g id="text_6">
      <!-- 50000 -->
      <g transform="translate(383.231633 322.182437) scale(0.1 -0.1)">
       <defs>
        <path id="DejaVuSans-35" d="M 691 4666 
L 3169 4666 
L 3169 4134 
L 1269 4134 
L 1269 2991 
Q 1406 3038 1543 3061 
Q 1681 3084 1819 3084 
Q 2600 3084 3056 2656 
Q 3513 2228 3513 1497 
Q 3513 744 3044 326 
Q 2575 -91 1722 -91 
Q 1428 -91 1123 -41 
Q 819 9 494 109 
L 494 744 
Q 775 591 1075 516 
Q 1375 441 1709 441 
Q 2250 441 2565 725 
Q 2881 1009 2881 1497 
Q 2881 1984 2565 2268 
Q 2250 2553 1709 2553 
Q 1456 2553 1204 2497 
Q 953 2441 691 2322 
L 691 4666 
z
" transform="scale(0.015625)"/>
       </defs>
       <use xlink:href="#DejaVuSans-35"/>
       <use xlink:href="#DejaVuSans-30" x="63.623047"/>
       <use xlink:href="#DejaVuSans-30" x="127.246094"/>
       <use xlink:href="#DejaVuSans-30" x="190.869141"/>
       <use xlink:href="#DejaVuSans-30" x="254.492188"/>
      </g>
     </g>
    </g>
    <g id="text_7">
     <!-- Episode -->
     <g transform="translate(216.5225 335.860562) scale(0.1 -0.1)">
      <defs>
       <path id="DejaVuSans-45" d="M 628 4666 
L 3578 4666 
L 3578 4134 
L 1259 4134 
L 1259 2753 
L 3481 2753 
L 3481 2222 
L 1259 2222 
L 1259 531 
L 3634 531 
L 3634 0 
L 628 0 
L 628 4666 
z
" transform="scale(0.015625)"/>
       <path id="DejaVuSans-70" d="M 1159 525 
L 1159 -1331 
L 581 -1331 
L 581 3500 
L 1159 3500 
L 1159 2969 
Q 1341 3281 1617 3432 
Q 1894 3584 2278 3584 
Q 2916 3584 3314 3078 
Q 3713 2572 3713 1747 
Q 3713 922 3314 415 
Q 2916 -91 2278 -91 
Q 1894 -91 1617 61 
Q 1341 213 1159 525 
z
M 3116 1747 
Q 3116 2381 2855 2742 
Q 2594 3103 2138 3103 
Q 1681 3103 1420 2742 
Q 1159 2381 1159 1747 
Q 1159 1113 1420 752 
Q 1681 391 2138 391 
Q 2594 391 2855 752 
Q 3116 1113 3116 1747 
z
" transform="scale(0.015625)"/>
       <path id="DejaVuSans-69" d="M 603 3500 
L 1178 3500 
L 1178 0 
L 603 0 
L 603 3500 
z
M 603 4863 
L 1178 4863 
L 1178 4134 
L 603 4134 
L 603 4863 
z
" transform="scale(0.015625)"/>
       <path id="DejaVuSans-73" d="M 2834 3397 
L 2834 2853 
Q 2591 2978 2328 3040 
Q 2066 3103 1784 3103 
Q 1356 3103 1142 2972 
Q 928 2841 928 2578 
Q 928 2378 1081 2264 
Q 1234 2150 1697 2047 
L 1894 2003 
Q 2506 1872 2764 1633 
Q 3022 1394 3022 966 
Q 3022 478 2636 193 
Q 2250 -91 1575 -91 
Q 1294 -91 989 -36 
Q 684 19 347 128 
L 347 722 
Q 666 556 975 473 
Q 1284 391 1588 391 
Q 1994 391 2212 530 
Q 2431 669 2431 922 
Q 2431 1156 2273 1281 
Q 2116 1406 1581 1522 
L 1381 1569 
Q 847 1681 609 1914 
Q 372 2147 372 2553 
Q 372 3047 722 3315 
Q 1072 3584 1716 3584 
Q 2034 3584 2315 3537 
Q 2597 3491 2834 3397 
z
" transform="scale(0.015625)"/>
       <path id="DejaVuSans-6f" d="M 1959 3097 
Q 1497 3097 1228 2736 
Q 959 2375 959 1747 
Q 959 1119 1226 758 
Q 1494 397 1959 397 
Q 2419 397 2687 759 
Q 2956 1122 2956 1747 
Q 2956 2369 2687 2733 
Q 2419 3097 1959 3097 
z
M 1959 3584 
Q 2709 3584 3137 3096 
Q 3566 2609 3566 1747 
Q 3566 888 3137 398 
Q 2709 -91 1959 -91 
Q 1206 -91 779 398 
Q 353 888 353 1747 
Q 353 2609 779 3096 
Q 1206 3584 1959 3584 
z
" transform="scale(0.015625)"/>
       <path id="DejaVuSans-64" d="M 2906 2969 
L 2906 4863 
L 3481 4863 
L 3481 0 
L 2906 0 
L 2906 525 
Q 2725 213 2448 61 
Q 2172 -91 1784 -91 
Q 1150 -91 751 415 
Q 353 922 353 1747 
Q 353 2572 751 3078 
Q 1150 3584 1784 3584 
Q 2172 3584 2448 3432 
Q 2725 3281 2906 2969 
z
M 947 1747 
Q 947 1113 1208 752 
Q 1469 391 1925 391 
Q 2381 391 2643 752 
Q 2906 1113 2906 1747 
Q 2906 2381 2643 2742 
Q 2381 3103 1925 3103 
Q 1469 3103 1208 2742 
Q 947 2381 947 1747 
z
" transform="scale(0.015625)"/>
       <path id="DejaVuSans-65" d="M 3597 1894 
L 3597 1613 
L 953 1613 
Q 991 1019 1311 708 
Q 1631 397 2203 397 
Q 2534 397 2845 478 
Q 3156 559 3463 722 
L 3463 178 
Q 3153 47 2828 -22 
Q 2503 -91 2169 -91 
Q 1331 -91 842 396 
Q 353 884 353 1716 
Q 353 2575 817 3079 
Q 1281 3584 2069 3584 
Q 2775 3584 3186 3129 
Q 3597 2675 3597 1894 
z
M 3022 2063 
Q 3016 2534 2758 2815 
Q 2500 3097 2075 3097 
Q 1594 3097 1305 2825 
Q 1016 2553 972 2059 
L 3022 2063 
z
" transform="scale(0.015625)"/>
      </defs>
      <use xlink:href="#DejaVuSans-45"/>
      <use xlink:href="#DejaVuSans-70" x="63.183594"/>
      <use xlink:href="#DejaVuSans-69" x="126.660156"/>
      <use xlink:href="#DejaVuSans-73" x="154.443359"/>
      <use xlink:href="#DejaVuSans-6f" x="206.542969"/>
      <use xlink:href="#DejaVuSans-64" x="267.724609"/>
      <use xlink:href="#DejaVuSans-65" x="331.201172"/>
     </g>
    </g>
   </g>
   <g id="matplotlib.axis_2">
    <g id="ytick_1">
     <g id="line2d_7">
      <defs>
       <path id="m4d0bfc7e6a" d="M 0 0 
L -3.5 0 
" style="stroke: #000000; stroke-width: 0.8"/>
      </defs>
      <g>
       <use xlink:href="#m4d0bfc7e6a" x="57.6" y="295.805672" style="stroke: #000000; stroke-width: 0.8"/>
      </g>
     </g>
     <g id="text_8">
      <!-- −6 -->
      <g transform="translate(35.857813 299.604891) scale(0.1 -0.1)">
       <defs>
        <path id="DejaVuSans-2212" d="M 678 2272 
L 4684 2272 
L 4684 1741 
L 678 1741 
L 678 2272 
z
" transform="scale(0.015625)"/>
        <path id="DejaVuSans-36" d="M 2113 2584 
Q 1688 2584 1439 2293 
Q 1191 2003 1191 1497 
Q 1191 994 1439 701 
Q 1688 409 2113 409 
Q 2538 409 2786 701 
Q 3034 994 3034 1497 
Q 3034 2003 2786 2293 
Q 2538 2584 2113 2584 
z
M 3366 4563 
L 3366 3988 
Q 3128 4100 2886 4159 
Q 2644 4219 2406 4219 
Q 1781 4219 1451 3797 
Q 1122 3375 1075 2522 
Q 1259 2794 1537 2939 
Q 1816 3084 2150 3084 
Q 2853 3084 3261 2657 
Q 3669 2231 3669 1497 
Q 3669 778 3244 343 
Q 2819 -91 2113 -91 
Q 1303 -91 875 529 
Q 447 1150 447 2328 
Q 447 3434 972 4092 
Q 1497 4750 2381 4750 
Q 2619 4750 2861 4703 
Q 3103 4656 3366 4563 
z
" transform="scale(0.015625)"/>
       </defs>
       <use xlink:href="#DejaVuSans-2212"/>
       <use xlink:href="#DejaVuSans-36" x="83.789062"/>
      </g>
     </g>
    </g>
    <g id="ytick_2">
     <g id="line2d_8">
      <g>
       <use xlink:href="#m4d0bfc7e6a" x="57.6" y="264.038464" style="stroke: #000000; stroke-width: 0.8"/>
      </g>
     </g>
     <g id="text_9">
      <!-- −5 -->
      <g transform="translate(35.857813 267.837682) scale(0.1 -0.1)">
       <use xlink:href="#DejaVuSans-2212"/>
       <use xlink:href="#DejaVuSans-35" x="83.789062"/>
      </g>
     </g>
    </g>
    <g id="ytick_3">
     <g id="line2d_9">
      <g>
       <use xlink:href="#m4d0bfc7e6a" x="57.6" y="232.271255" style="stroke: #000000; stroke-width: 0.8"/>
      </g>
     </g>
     <g id="text_10">
      <!-- −4 -->
      <g transform="translate(35.857813 236.070474) scale(0.1 -0.1)">
       <use xlink:href="#DejaVuSans-2212"/>
       <use xlink:href="#DejaVuSans-34" x="83.789062"/>
      </g>
     </g>
    </g>
    <g id="ytick_4">
     <g id="line2d_10">
      <g>
       <use xlink:href="#m4d0bfc7e6a" x="57.6" y="200.504046" style="stroke: #000000; stroke-width: 0.8"/>
      </g>
     </g>
     <g id="text_11">
      <!-- −3 -->
      <g transform="translate(35.857813 204.303265) scale(0.1 -0.1)">
       <use xlink:href="#DejaVuSans-2212"/>
       <use xlink:href="#DejaVuSans-33" x="83.789062"/>
      </g>
     </g>
    </g>
    <g id="ytick_5">
     <g id="line2d_11">
      <g>
       <use xlink:href="#m4d0bfc7e6a" x="57.6" y="168.736838" style="stroke: #000000; stroke-width: 0.8"/>
      </g>
     </g>
     <g id="text_12">
      <!-- −2 -->
      <g transform="translate(35.857813 172.536057) scale(0.1 -0.1)">
       <use xlink:href="#DejaVuSans-2212"/>
       <use xlink:href="#DejaVuSans-32" x="83.789062"/>
      </g>
     </g>
    </g>
    <g id="ytick_6">
     <g id="line2d_12">
      <g>
       <use xlink:href="#m4d0bfc7e6a" x="57.6" y="136.969629" style="stroke: #000000; stroke-width: 0.8"/>
      </g>
     </g>
     <g id="text_13">
      <!-- −1 -->
      <g transform="translate(35.857813 140.768848) scale(0.1 -0.1)">
       <use xlink:href="#DejaVuSans-2212"/>
       <use xlink:href="#DejaVuSans-31" x="83.789062"/>
      </g>
     </g>
    </g>
    <g id="ytick_7">
     <g id="line2d_13">
      <g>
       <use xlink:href="#m4d0bfc7e6a" x="57.6" y="105.202421" style="stroke: #000000; stroke-width: 0.8"/>
      </g>
     </g>
     <g id="text_14">
      <!-- 0 -->
      <g transform="translate(44.2375 109.00164) scale(0.1 -0.1)">
       <use xlink:href="#DejaVuSans-30"/>
      </g>
     </g>
    </g>
    <g id="ytick_8">
     <g id="line2d_14">
      <g>
       <use xlink:href="#m4d0bfc7e6a" x="57.6" y="73.435212" style="stroke: #000000; stroke-width: 0.8"/>
      </g>
     </g>
     <g id="text_15">
      <!-- 1 -->
      <g transform="translate(44.2375 77.234431) scale(0.1 -0.1)">
       <use xlink:href="#DejaVuSans-31"/>
      </g>
     </g>
    </g>
    <g id="ytick_9">
     <g id="line2d_15">
      <g>
       <use xlink:href="#m4d0bfc7e6a" x="57.6" y="41.668004" style="stroke: #000000; stroke-width: 0.8"/>
      </g>
     </g>
     <g id="text_16">
      <!-- 2 -->
      <g transform="translate(44.2375 45.467222) scale(0.1 -0.1)">
       <use xlink:href="#DejaVuSans-32"/>
      </g>
     </g>
    </g>
    <g id="text_17">
     <!-- Avg Reward -->
     <g transform="translate(29.778125 203.998312) rotate(-90) scale(0.1 -0.1)">
      <defs>
       <path id="DejaVuSans-41" d="M 2188 4044 
L 1331 1722 
L 3047 1722 
L 2188 4044 
z
M 1831 4666 
L 2547 4666 
L 4325 0 
L 3669 0 
L 3244 1197 
L 1141 1197 
L 716 0 
L 50 0 
L 1831 4666 
z
" transform="scale(0.015625)"/>
       <path id="DejaVuSans-76" d="M 191 3500 
L 800 3500 
L 1894 563 
L 2988 3500 
L 3597 3500 
L 2284 0 
L 1503 0 
L 191 3500 
z
" transform="scale(0.015625)"/>
       <path id="DejaVuSans-67" d="M 2906 1791 
Q 2906 2416 2648 2759 
Q 2391 3103 1925 3103 
Q 1463 3103 1205 2759 
Q 947 2416 947 1791 
Q 947 1169 1205 825 
Q 1463 481 1925 481 
Q 2391 481 2648 825 
Q 2906 1169 2906 1791 
z
M 3481 434 
Q 3481 -459 3084 -895 
Q 2688 -1331 1869 -1331 
Q 1566 -1331 1297 -1286 
Q 1028 -1241 775 -1147 
L 775 -588 
Q 1028 -725 1275 -790 
Q 1522 -856 1778 -856 
Q 2344 -856 2625 -561 
Q 2906 -266 2906 331 
L 2906 616 
Q 2728 306 2450 153 
Q 2172 0 1784 0 
Q 1141 0 747 490 
Q 353 981 353 1791 
Q 353 2603 747 3093 
Q 1141 3584 1784 3584 
Q 2172 3584 2450 3431 
Q 2728 3278 2906 2969 
L 2906 3500 
L 3481 3500 
L 3481 434 
z
" transform="scale(0.015625)"/>
       <path id="DejaVuSans-20" transform="scale(0.015625)"/>
       <path id="DejaVuSans-52" d="M 2841 2188 
Q 3044 2119 3236 1894 
Q 3428 1669 3622 1275 
L 4263 0 
L 3584 0 
L 2988 1197 
Q 2756 1666 2539 1819 
Q 2322 1972 1947 1972 
L 1259 1972 
L 1259 0 
L 628 0 
L 628 4666 
L 2053 4666 
Q 2853 4666 3247 4331 
Q 3641 3997 3641 3322 
Q 3641 2881 3436 2590 
Q 3231 2300 2841 2188 
z
M 1259 4147 
L 1259 2491 
L 2053 2491 
Q 2509 2491 2742 2702 
Q 2975 2913 2975 3322 
Q 2975 3731 2742 3939 
Q 2509 4147 2053 4147 
L 1259 4147 
z
" transform="scale(0.015625)"/>
       <path id="DejaVuSans-77" d="M 269 3500 
L 844 3500 
L 1563 769 
L 2278 3500 
L 2956 3500 
L 3675 769 
L 4391 3500 
L 4966 3500 
L 4050 0 
L 3372 0 
L 2619 2869 
L 1863 0 
L 1184 0 
L 269 3500 
z
" transform="scale(0.015625)"/>
       <path id="DejaVuSans-61" d="M 2194 1759 
Q 1497 1759 1228 1600 
Q 959 1441 959 1056 
Q 959 750 1161 570 
Q 1363 391 1709 391 
Q 2188 391 2477 730 
Q 2766 1069 2766 1631 
L 2766 1759 
L 2194 1759 
z
M 3341 1997 
L 3341 0 
L 2766 0 
L 2766 531 
Q 2569 213 2275 61 
Q 1981 -91 1556 -91 
Q 1019 -91 701 211 
Q 384 513 384 1019 
Q 384 1609 779 1909 
Q 1175 2209 1959 2209 
L 2766 2209 
L 2766 2266 
Q 2766 2663 2505 2880 
Q 2244 3097 1772 3097 
Q 1472 3097 1187 3025 
Q 903 2953 641 2809 
L 641 3341 
Q 956 3463 1253 3523 
Q 1550 3584 1831 3584 
Q 2591 3584 2966 3190 
Q 3341 2797 3341 1997 
z
" transform="scale(0.015625)"/>
       <path id="DejaVuSans-72" d="M 2631 2963 
Q 2534 3019 2420 3045 
Q 2306 3072 2169 3072 
Q 1681 3072 1420 2755 
Q 1159 2438 1159 1844 
L 1159 0 
L 581 0 
L 581 3500 
L 1159 3500 
L 1159 2956 
Q 1341 3275 1631 3429 
Q 1922 3584 2338 3584 
Q 2397 3584 2469 3576 
Q 2541 3569 2628 3553 
L 2631 2963 
z
" transform="scale(0.015625)"/>
      </defs>
      <use xlink:href="#DejaVuSans-41"/>
      <use xlink:href="#DejaVuSans-76" x="62.533203"/>
      <use xlink:href="#DejaVuSans-67" x="121.712891"/>
      <use xlink:href="#DejaVuSans-20" x="185.189453"/>
      <use xlink:href="#DejaVuSans-52" x="216.976562"/>
      <use xlink:href="#DejaVuSans-65" x="281.958984"/>
      <use xlink:href="#DejaVuSans-77" x="343.482422"/>
      <use xlink:href="#DejaVuSans-61" x="425.269531"/>
      <use xlink:href="#DejaVuSans-72" x="486.548828"/>
      <use xlink:href="#DejaVuSans-64" x="525.912109"/>
     </g>
    </g>
   </g>
   <g id="line2d_16">
    <path d="M 73.832727 138.240318 
L 74.483338 142.052383 
L 75.133948 139.193334 
L 75.784558 295.488 
L 79.03761 295.488 
L 79.68822 105.243718 
L 80.33883 295.488 
L 81.640051 295.488 
L 82.290661 149.454142 
L 82.941272 211.695634 
L 83.591882 295.488 
L 85.543713 295.488 
L 86.194323 220.812823 
L 86.844934 209.700653 
L 87.495544 207.670729 
L 88.146154 202.235359 
L 88.796764 219.735914 
L 89.447375 295.488 
L 91.399206 295.488 
L 92.049816 184.757041 
L 92.700426 211.895767 
L 93.351037 228.087514 
L 94.001647 295.488 
L 95.302868 295.488 
L 95.953478 210.434476 
L 96.604088 295.488 
L 97.254698 202.165471 
L 97.905309 295.488 
L 98.555919 211.085704 
L 99.206529 241.502806 
L 99.85714 295.488 
L 100.50775 295.488 
L 101.15836 224.786901 
L 101.808971 226.162421 
L 102.459581 295.488 
L 103.110191 204.23034 
L 103.760802 225.171284 
L 104.411412 212.318271 
L 105.062022 222.108925 
L 105.712633 216.56237 
L 106.363243 235.772001 
L 107.013853 217.772701 
L 107.664463 246.077284 
L 108.315074 201.4793 
L 108.965684 224.672539 
L 109.616294 219.475423 
L 110.266905 206.860665 
L 111.568125 196.066167 
L 112.218736 199.379487 
L 112.869346 233.484762 
L 113.519956 211.384315 
L 114.170567 247.681528 
L 114.821177 204.366939 
L 115.471787 226.638929 
L 116.122398 195.154449 
L 116.773008 203.807836 
L 117.423618 199.636802 
L 118.074228 197.606877 
L 118.724839 208.102763 
L 119.375449 198.93157 
L 120.026059 219.240346 
L 120.67667 178.390893 
L 121.32728 196.987416 
L 121.97789 182.101303 
L 122.628501 183.51812 
L 123.279111 225.54296 
L 123.929721 174.105496 
L 124.580332 188.829597 
L 125.230942 163.558783 
L 125.881552 205.675748 
L 126.532163 189.287045 
L 127.182773 200.891606 
L 127.833383 200.446865 
L 128.483993 198.270812 
L 129.134604 212.388159 
L 129.785214 223.297019 
L 130.435824 198.912509 
L 131.086435 197.629114 
L 131.737045 236.130971 
L 132.387655 219.926518 
L 133.038266 185.436859 
L 133.688876 196.949296 
L 134.339486 183.775434 
L 134.990097 175.855869 
L 135.640707 183.565771 
L 136.291317 186.078557 
L 136.941927 187.361952 
L 137.592538 167.469326 
L 138.243148 223.617867 
L 138.893758 192.174684 
L 139.544369 183.50859 
L 140.194979 189.445881 
L 140.845589 172.297942 
L 141.4962 198.912509 
L 142.14681 173.638518 
L 142.79742 202.880234 
L 144.098641 179.356616 
L 145.399862 213.992403 
L 146.050472 187.921055 
L 146.701082 194.887604 
L 147.351692 153.672828 
L 148.002303 235.489273 
L 148.652913 148.510656 
L 149.303523 187.682801 
L 149.954134 198.270812 
L 150.604744 211.746462 
L 151.255354 178.552905 
L 151.905965 184.483843 
L 152.556575 158.51415 
L 153.207185 182.90819 
L 153.857796 151.106037 
L 154.508406 161.173066 
L 155.159016 154.845038 
L 155.809627 166.185931 
L 156.460237 204.366939 
L 157.110847 143.304011 
L 157.761457 195.062324 
L 158.412068 177.09479 
L 159.062678 170.970073 
L 159.713288 202.441846 
L 160.363899 144.978143 
L 161.014509 145.778676 
L 161.665119 154.99752 
L 162.31573 201.4793 
L 162.96634 187.361952 
L 163.61695 153.03113 
L 164.267561 193.210295 
L 164.918171 158.806408 
L 165.568781 151.106037 
L 166.219392 155.918769 
L 166.870002 157.523013 
L 167.520612 185.436859 
L 168.171222 164.260838 
L 168.821833 156.239618 
L 169.472443 168.111024 
L 170.123053 216.238345 
L 170.773664 162.519995 
L 172.074884 197.59417 
L 172.725495 210.463066 
L 173.376105 168.431873 
L 174.026715 197.098602 
L 174.677326 169.997996 
L 175.327936 162.335745 
L 175.978546 133.780202 
L 176.629156 142.763968 
L 177.279767 185.67829 
L 177.930377 131.388131 
L 178.580987 170.356966 
L 179.231598 161.694048 
L 179.882208 177.209152 
L 180.532818 157.523013 
L 181.183429 163.593727 
L 181.834039 159.127257 
L 182.484649 175.490546 
L 183.13526 155.59792 
L 183.78587 152.710281 
L 184.43648 169.715268 
L 185.087091 208.217125 
L 186.388311 166.417832 
L 187.038921 191.212138 
L 187.689532 180.303279 
L 188.340142 171.640361 
L 188.990752 150.721654 
L 189.641363 147.897549 
L 190.291973 144.368212 
L 190.942583 154.635374 
L 191.593194 146.293305 
L 192.894414 189.287045 
L 193.545025 162.335745 
L 194.195635 156.881316 
L 194.846245 198.912509 
L 195.496856 203.404393 
L 196.147466 171.640361 
L 196.798076 182.54922 
L 197.448686 156.881316 
L 198.099297 165.865082 
L 199.400517 186.720255 
L 200.051128 169.394419 
L 200.701738 123.354204 
L 201.352348 152.710281 
L 202.002959 153.351979 
L 202.653569 183.292573 
L 203.304179 187.041103 
L 203.95479 119.446837 
L 204.6054 166.10016 
L 205.25601 194.099777 
L 205.906621 191.853836 
L 206.557231 150.639059 
L 207.207841 154.635374 
L 207.858451 189.607894 
L 208.509062 161.427203 
L 209.159672 159.448106 
L 209.810282 171.319512 
L 211.111503 139.110739 
L 211.762113 194.099777 
L 212.412724 116.924521 
L 213.713944 158.806408 
L 214.364555 147.897549 
L 215.015165 124.154737 
L 215.665775 143.307187 
L 216.316385 133.459353 
L 216.966996 174.528 
L 217.617606 174.207151 
L 218.268216 204.513068 
L 218.918827 172.602907 
L 219.569437 196.771399 
L 220.220047 137.906762 
L 220.870658 147.5767 
L 221.521268 110.999936 
L 222.171878 158.48556 
L 222.822489 162.656594 
L 223.473099 140.197178 
L 224.123709 151.106037 
L 224.77432 166.887986 
L 225.42493 126.194192 
L 226.07554 166.827629 
L 226.72615 131.855109 
L 227.376761 135.705294 
L 228.027371 191.212138 
L 228.677981 118.557355 
L 229.328592 163.298292 
L 229.979202 125.117284 
L 230.629812 171.96121 
L 231.280423 120.098065 
L 231.931033 147.255851 
L 232.581643 132.175958 
L 233.232254 135.533752 
L 233.882864 144.368212 
L 234.533474 120.946249 
L 235.184085 144.689061 
L 235.834695 128.646621 
L 236.485305 118.700308 
L 237.135915 138.272085 
L 237.786526 173.886302 
L 238.437136 168.155498 
L 239.087746 135.063597 
L 239.738357 132.496806 
L 240.388967 113.245878 
L 241.039577 161.694048 
L 241.690188 173.886302 
L 242.340798 147.255851 
L 242.991408 143.726515 
L 243.642019 147.996027 
L 244.292629 149.501793 
L 244.943239 139.55548 
L 245.59385 168.752721 
L 246.24446 136.346992 
L 246.89507 148.218398 
L 247.54568 163.298292 
L 248.196291 137.630387 
L 248.846901 150.143491 
L 249.497511 152.389432 
L 250.148122 121.908796 
L 250.798732 146.935003 
L 251.449342 128.646621 
L 252.099953 146.935003 
L 252.750563 158.806408 
L 253.401173 107.791448 
L 254.051784 128.646621 
L 254.702394 139.234631 
L 255.353004 137.951236 
L 256.003615 133.780202 
L 256.654225 125.117284 
L 257.304835 160.410653 
L 257.955445 122.871342 
L 258.606056 136.346992 
L 259.256666 147.255851 
L 259.907276 112.283332 
L 260.557887 110.679088 
L 261.208497 128.370246 
L 261.859107 101.695321 
L 262.509718 113.566727 
L 263.160328 119.662854 
L 263.810938 110.679088 
L 264.461549 165.865082 
L 265.112159 100.411926 
L 265.762769 89.182218 
L 266.413379 107.791448 
L 267.06399 117.096064 
L 267.7146 166.50678 
L 268.36521 132.906603 
L 269.015821 136.556656 
L 269.666431 94.315798 
L 270.317041 91.10731 
L 270.967652 140.197178 
L 271.618262 146.36637 
L 272.919483 108.753995 
L 273.570093 119.021156 
L 274.220703 131.53426 
L 274.871314 140.197178 
L 275.521924 134.421899 
L 276.172534 110.999936 
L 276.823144 130.892562 
L 277.473755 156.239618 
L 278.124365 116.454366 
L 278.774975 116.940404 
L 279.425586 130.571714 
L 280.076196 105.55186 
L 280.726806 124.796435 
L 281.377417 133.459353 
L 282.028027 131.855109 
L 282.678637 117.096064 
L 283.329248 132.817655 
L 283.979858 117.416912 
L 284.630468 135.063597 
L 285.281079 123.192191 
L 286.582299 129.288318 
L 287.232909 131.855109 
L 287.88352 136.254867 
L 288.53413 141.801422 
L 289.18474 115.49182 
L 289.835351 122.550493 
L 290.485961 142.763968 
L 291.136571 93.032403 
L 291.787182 127.363225 
L 292.437792 99.770228 
L 293.088402 142.443119 
L 293.739013 134.593442 
L 294.389623 133.459353 
L 295.040233 126.721528 
L 295.690844 112.60418 
L 296.341454 107.791448 
L 296.992064 126.07983 
L 297.642674 90.465613 
L 298.293285 140.197178 
L 298.943895 128.004923 
L 299.594505 140.197178 
L 300.245116 134.10105 
L 300.895726 120.946249 
L 301.546336 120.304552 
L 302.196947 108.112297 
L 302.847557 126.07983 
L 303.498167 102.610217 
L 304.148778 111.244544 
L 304.799388 138.913782 
L 305.449998 92.959339 
L 306.751219 123.192191 
L 307.401829 112.60418 
L 308.052439 139.920803 
L 308.70305 145.651607 
L 309.35366 105.942597 
L 310.00427 131.740747 
L 310.654881 88.219671 
L 311.305491 130.250865 
L 311.956101 141.480573 
L 312.606712 90.144764 
L 313.257322 88.934433 
L 313.907932 122.242351 
L 314.558543 89.503066 
L 315.209153 101.374472 
L 315.859763 103.299565 
L 316.510373 123.192191 
L 317.160984 104.262111 
L 317.811594 146.293305 
L 318.462204 127.042377 
L 319.112815 131.213411 
L 319.763425 110.2407 
L 320.414035 115.812668 
L 321.064646 139.482416 
L 321.715256 88.267322 
L 322.365866 152.068584 
L 323.016477 127.684074 
L 323.667087 112.925029 
L 324.317697 109.716541 
L 324.968308 112.925029 
L 325.618918 113.245878 
L 326.269528 109.074844 
L 326.920138 93.674101 
L 327.570749 124.415229 
L 328.221359 134.421899 
L 328.871969 119.983703 
L 329.52258 110.787096 
L 330.17319 114.894596 
L 330.8238 136.98869 
L 331.474411 118.061787 
L 332.125021 102.978716 
L 332.775631 128.004923 
L 333.426242 109.716541 
L 334.076852 127.401346 
L 334.727462 115.49182 
L 335.378073 100.732775 
L 336.028683 107.791448 
L 336.679293 151.426886 
L 337.329903 137.309538 
L 337.980514 106.828902 
L 338.631124 134.421899 
L 339.281734 127.363225 
L 339.932345 102.546682 
L 340.582955 102.337019 
L 341.233565 104.262111 
L 341.884176 98.165984 
L 342.534786 129.930016 
L 343.185396 97.203438 
L 343.836007 114.208424 
L 344.486617 109.716541 
L 345.137227 121.587947 
L 345.787837 136.667841 
L 346.438448 80.5193 
L 347.089058 92.390706 
L 347.739668 126.07983 
L 348.390279 113.566727 
L 349.040889 136.98869 
L 349.691499 79.362973 
L 350.34211 74.744021 
L 350.99272 129.288318 
L 351.64333 88.54052 
L 352.293941 81.481846 
L 352.944551 103.941263 
L 354.245772 83.727788 
L 354.896382 102.657867 
L 355.546992 99.449379 
L 356.197602 92.390706 
L 356.848213 126.07983 
L 357.498823 76.027416 
L 358.149433 75.706568 
L 358.800044 127.684074 
L 360.101264 105.95848 
L 360.751875 109.716541 
L 361.402485 94.636647 
L 362.053095 108.112297 
L 362.703706 133.780202 
L 363.354316 118.700308 
L 364.004926 82.444393 
L 364.655537 85.652881 
L 365.306147 102.657867 
L 365.956757 101.374472 
L 366.607367 111.320785 
L 367.257978 91.10731 
L 367.908588 119.983703 
L 368.559198 114.217955 
L 369.209809 79.556753 
L 369.860419 106.508053 
L 370.511029 88.861369 
L 371.16164 93.032403 
L 371.81225 101.695321 
L 372.46286 130.892562 
L 373.113471 84.690334 
L 373.764081 110.358239 
L 374.414691 89.430002 
L 375.065302 105.545507 
L 375.715912 77.310812 
L 376.366522 112.60418 
L 377.017132 114.208424 
L 377.667743 53.568 
L 378.318353 128.646621 
L 378.968963 102.978716 
L 379.619574 120.625401 
L 380.270184 81.481846 
L 381.571405 109.716541 
L 382.222015 106.187204 
L 382.872625 115.812668 
L 383.523236 82.612759 
L 384.173846 122.871342 
L 384.824456 75.06487 
L 385.475066 96.56174 
L 386.125677 96.012167 
L 386.776287 61.910069 
L 387.426897 63.193464 
L 388.077508 107.470599 
L 388.728118 89.823915 
L 389.378728 103.620414 
L 390.029339 110.03739 
L 390.679949 103.299565 
L 391.330559 116.454366 
L 391.98117 83.08609 
L 392.63178 102.337019 
L 393.28239 59.664127 
L 393.933001 119.662854 
L 394.583611 81.160997 
L 395.234221 101.695321 
L 395.884831 64.156011 
L 396.535442 81.481846 
L 397.186052 105.224658 
L 397.836662 89.582484 
L 398.487273 97.845135 
L 398.487273 97.845135 
" clip-path="url(#paeff8d1389)" style="fill: none; stroke: #1f77b4; stroke-width: 1.5; stroke-linecap: square"/>
   </g>
   <g id="patch_3">
    <path d="M 57.6 307.584 
L 57.6 41.472 
" style="fill: none; stroke: #000000; stroke-width: 0.8; stroke-linejoin: miter; stroke-linecap: square"/>
   </g>
   <g id="patch_4">
    <path d="M 414.72 307.584 
L 414.72 41.472 
" style="fill: none; stroke: #000000; stroke-width: 0.8; stroke-linejoin: miter; stroke-linecap: square"/>
   </g>
   <g id="patch_5">
    <path d="M 57.6 307.584 
L 414.72 307.584 
" style="fill: none; stroke: #000000; stroke-width: 0.8; stroke-linejoin: miter; stroke-linecap: square"/>
   </g>
   <g id="patch_6">
    <path d="M 57.6 41.472 
L 414.72 41.472 
" style="fill: none; stroke: #000000; stroke-width: 0.8; stroke-linejoin: miter; stroke-linecap: square"/>
   </g>
   <g id="text_18">
    <!-- Eval Reward During Training -->
    <g transform="translate(151.569375 35.472) scale(0.12 -0.12)">
     <defs>
      <path id="DejaVuSans-6c" d="M 603 4863 
L 1178 4863 
L 1178 0 
L 603 0 
L 603 4863 
z
" transform="scale(0.015625)"/>
      <path id="DejaVuSans-44" d="M 1259 4147 
L 1259 519 
L 2022 519 
Q 2988 519 3436 956 
Q 3884 1394 3884 2338 
Q 3884 3275 3436 3711 
Q 2988 4147 2022 4147 
L 1259 4147 
z
M 628 4666 
L 1925 4666 
Q 3281 4666 3915 4102 
Q 4550 3538 4550 2338 
Q 4550 1131 3912 565 
Q 3275 0 1925 0 
L 628 0 
L 628 4666 
z
" transform="scale(0.015625)"/>
      <path id="DejaVuSans-75" d="M 544 1381 
L 544 3500 
L 1119 3500 
L 1119 1403 
Q 1119 906 1312 657 
Q 1506 409 1894 409 
Q 2359 409 2629 706 
Q 2900 1003 2900 1516 
L 2900 3500 
L 3475 3500 
L 3475 0 
L 2900 0 
L 2900 538 
Q 2691 219 2414 64 
Q 2138 -91 1772 -91 
Q 1169 -91 856 284 
Q 544 659 544 1381 
z
M 1991 3584 
L 1991 3584 
z
" transform="scale(0.015625)"/>
      <path id="DejaVuSans-6e" d="M 3513 2113 
L 3513 0 
L 2938 0 
L 2938 2094 
Q 2938 2591 2744 2837 
Q 2550 3084 2163 3084 
Q 1697 3084 1428 2787 
Q 1159 2491 1159 1978 
L 1159 0 
L 581 0 
L 581 3500 
L 1159 3500 
L 1159 2956 
Q 1366 3272 1645 3428 
Q 1925 3584 2291 3584 
Q 2894 3584 3203 3211 
Q 3513 2838 3513 2113 
z
" transform="scale(0.015625)"/>
      <path id="DejaVuSans-54" d="M -19 4666 
L 3928 4666 
L 3928 4134 
L 2272 4134 
L 2272 0 
L 1638 0 
L 1638 4134 
L -19 4134 
L -19 4666 
z
" transform="scale(0.015625)"/>
     </defs>
     <use xlink:href="#DejaVuSans-45"/>
     <use xlink:href="#DejaVuSans-76" x="63.183594"/>
     <use xlink:href="#DejaVuSans-61" x="122.363281"/>
     <use xlink:href="#DejaVuSans-6c" x="183.642578"/>
     <use xlink:href="#DejaVuSans-20" x="211.425781"/>
     <use xlink:href="#DejaVuSans-52" x="243.212891"/>
     <use xlink:href="#DejaVuSans-65" x="308.195312"/>
     <use xlink:href="#DejaVuSans-77" x="369.71875"/>
     <use xlink:href="#DejaVuSans-61" x="451.505859"/>
     <use xlink:href="#DejaVuSans-72" x="512.785156"/>
     <use xlink:href="#DejaVuSans-64" x="552.148438"/>
     <use xlink:href="#DejaVuSans-20" x="615.625"/>
     <use xlink:href="#DejaVuSans-44" x="647.412109"/>
     <use xlink:href="#DejaVuSans-75" x="724.414062"/>
     <use xlink:href="#DejaVuSans-72" x="787.792969"/>
     <use xlink:href="#DejaVuSans-69" x="828.90625"/>
     <use xlink:href="#DejaVuSans-6e" x="856.689453"/>
     <use xlink:href="#DejaVuSans-67" x="920.068359"/>
     <use xlink:href="#DejaVuSans-20" x="983.544922"/>
     <use xlink:href="#DejaVuSans-54" x="1015.332031"/>
     <use xlink:href="#DejaVuSans-72" x="1061.666016"/>
     <use xlink:href="#DejaVuSans-61" x="1102.779297"/>
     <use xlink:href="#DejaVuSans-69" x="1164.058594"/>
     <use xlink:href="#DejaVuSans-6e" x="1191.841797"/>
     <use xlink:href="#DejaVuSans-69" x="1255.220703"/>
     <use xlink:href="#DejaVuSans-6e" x="1283.003906"/>
     <use xlink:href="#DejaVuSans-67" x="1346.382812"/>
    </g>
   </g>
  </g>
 </g>
 <defs>
  <clipPath id="paeff8d1389">
   <rect x="57.6" y="41.472" width="357.12" height="266.112"/>
  </clipPath>
 </defs>
</svg>
